<?xml version="1.0" encoding="iso-8859-1"?>
<!-- Generator: Adobe Illustrator 19.0.0, SVG Export Plug-In . SVG Version: 6.00 Build 0)  -->
<svg version="1.1" id="Capa_1" xmlns="http://www.w3.org/2000/svg" xmlns:xlink="http://www.w3.org/1999/xlink" x="0px" y="0px"
	 viewBox="0 0 512.001 512.001" style="enable-background:new 0 0 512.001 512.001;" xml:space="preserve">
<g>
	<g>
		<rect x="239.219" y="112.085" width="129.774" height="97.135"/>
	</g>
</g>
<g>
	<g>
		<path d="M474.477,33.761v425.716h0c0,10.346,8.417,18.762,18.762,18.762s18.762-8.417,18.762-18.762V33.761H474.477z"/>
	</g>
</g>
<g>
	<g>
		<path d="M444.477,459.477V33.761H0V459.48c0,10.344,8.417,18.759,18.762,18.759h429.474
			C445.818,472.46,444.477,466.122,444.477,459.477z M209.218,82.085h189.769v157.132H209.218V82.085z M48.555,82.085h127.988
			v29.999H48.555V82.085z M48.555,145.652h127.988v29.999H48.555V145.652z M48.555,209.218h127.988v29.999H48.555V209.218z
			 M399.88,429.915h-0.001H48.555v-29.999H399.88V429.915z M399.88,366.349h-0.001H48.555V336.35H399.88V366.349z M399.88,302.782
			h-0.001H48.555v-29.999H399.88V302.782z"/>
	</g>
</g>
<g>
</g>
<g>
</g>
<g>
</g>
<g>
</g>
<g>
</g>
<g>
</g>
<g>
</g>
<g>
</g>
<g>
</g>
<g>
</g>
<g>
</g>
<g>
</g>
<g>
</g>
<g>
</g>
<g>
</g>
</svg>
